<svg width="3" height="16" viewBox="0 0 3 16" fill="none" xmlns="http://www.w3.org/2000/svg">
<path d="M0 2.25024C0 3.07867 0.671573 3.75024 1.5 3.75024C2.32843 3.75024 3 3.07867 3 2.25024C3 1.42182 2.32843 0.750244 1.5 0.750244C0.671573 0.750244 0 1.42182 0 2.25024Z" fill="#999999"/>
<path d="M0 8.25024C0 9.07867 0.671573 9.75024 1.5 9.75024C2.32843 9.75024 3 9.07867 3 8.25024C3 7.42182 2.32843 6.75024 1.5 6.75024C0.671573 6.75024 0 7.42182 0 8.25024Z" fill="#999999"/>
<path d="M1.5 15.7502C0.671573 15.7502 0 15.0787 0 14.2502C0 13.4218 0.671573 12.7502 1.5 12.7502C2.32843 12.7502 3 13.4218 3 14.2502C3 15.0787 2.32843 15.7502 1.5 15.7502Z" fill="#999999"/>
</svg>
